<svg width="51" height="51" viewBox="0 0 51 51" fill="none" xmlns="http://www.w3.org/2000/svg">
<path d="M9.05249 23.4175V33.9787C9.05249 37.8462 9.05249 37.8462 12.7075 40.3112L22.7587 46.1125C24.2675 46.9837 26.7325 46.9837 28.2412 46.1125L38.2925 40.3112C41.9475 37.8462 41.9475 37.8462 41.9475 33.9787V23.4175C41.9475 19.55 41.9475 19.55 38.2925 17.085L28.2412 11.2837C26.7325 10.4125 24.2675 10.4125 22.7587 11.2837L12.7075 17.085C9.05249 19.55 9.05249 19.55 9.05249 23.4175Z" stroke="#07314A" stroke-width="1.5" stroke-linecap="round" stroke-linejoin="round"/>
<path d="M37.1875 16.2138V10.625C37.1875 6.375 35.0625 4.25 30.8125 4.25H20.1875C15.9375 4.25 13.8125 6.375 13.8125 10.625V16.065" stroke="#07314A" stroke-width="1.5" stroke-linecap="round" stroke-linejoin="round"/>
<path d="M26.8388 23.3538L28.05 25.245C28.2413 25.5425 28.6663 25.84 28.985 25.925L31.1525 26.4775C32.4913 26.8175 32.8525 27.965 31.9813 29.0275L30.5575 30.7488C30.345 31.025 30.175 31.5138 30.1963 31.8538L30.3238 34.085C30.4088 35.4663 29.4313 36.1675 28.1563 35.6575L26.0738 34.8288C25.755 34.7013 25.2238 34.7013 24.905 34.8288L22.8225 35.6575C21.5475 36.1675 20.57 35.445 20.655 34.085L20.7825 31.8538C20.8038 31.5138 20.6338 31.0038 20.4213 30.7488L18.9975 29.0275C18.1263 27.965 18.4875 26.8175 19.8263 26.4775L21.9938 25.925C22.3338 25.84 22.7588 25.5213 22.9288 25.245L24.14 23.3538C24.905 22.2063 26.095 22.2063 26.8388 23.3538Z" stroke="#07314A" stroke-width="1.5" stroke-linecap="round" stroke-linejoin="round"/>
</svg>
